<mxfile host="app.diagrams.net" modified="2024-05-11T07:01:24.457Z" agent="Mozilla/5.0 (X11; Linux x86_64) AppleWebKit/537.36 (KHTML, like Gecko) Chrome/124.0.0.0 Safari/537.36" etag="v8IhGzCutKWkHhwERErB" version="24.4.0" type="device">
  <diagram name="Page-1" id="3A-bKjRwPzskrowykIoa">
    <mxGraphModel dx="474" dy="1784" grid="1" gridSize="10" guides="1" tooltips="1" connect="1" arrows="1" fold="1" page="1" pageScale="1" pageWidth="850" pageHeight="1100" math="0" shadow="0">
      <root>
        <mxCell id="0" />
        <mxCell id="1" parent="0" />
        <mxCell id="mFo93Jf3UvVI9SlzPaP3-1" value="&lt;strong style=&quot;font-family: &amp;quot;PT Sans&amp;quot;, sans-serif; font-size: 16px; text-align: left; text-wrap: wrap;&quot;&gt;π&lt;/strong&gt;&amp;nbsp;c.name, a.atype, b.b_address" style="text;html=1;align=center;verticalAlign=middle;resizable=0;points=[];autosize=1;strokeColor=none;fillColor=none;" vertex="1" parent="1">
          <mxGeometry x="270" y="-110" width="200" height="30" as="geometry" />
        </mxCell>
        <mxCell id="mFo93Jf3UvVI9SlzPaP3-2" value="" style="endArrow=none;html=1;rounded=0;entryX=0.495;entryY=1;entryDx=0;entryDy=0;entryPerimeter=0;exitX=0.5;exitY=0;exitDx=0;exitDy=0;exitPerimeter=0;" edge="1" parent="1" source="mFo93Jf3UvVI9SlzPaP3-33" target="mFo93Jf3UvVI9SlzPaP3-1">
          <mxGeometry width="50" height="50" relative="1" as="geometry">
            <mxPoint x="367" y="-20" as="sourcePoint" />
            <mxPoint x="410" y="-90" as="targetPoint" />
          </mxGeometry>
        </mxCell>
        <mxCell id="mFo93Jf3UvVI9SlzPaP3-6" value="" style="rounded=0;orthogonalLoop=1;jettySize=auto;html=1;endArrow=none;endFill=0;" edge="1" parent="1" source="mFo93Jf3UvVI9SlzPaP3-4" target="mFo93Jf3UvVI9SlzPaP3-5">
          <mxGeometry relative="1" as="geometry" />
        </mxCell>
        <mxCell id="mFo93Jf3UvVI9SlzPaP3-4" value="c" style="ellipse;whiteSpace=wrap;html=1;aspect=fixed;" vertex="1" parent="1">
          <mxGeometry x="80" y="300" width="30" height="30" as="geometry" />
        </mxCell>
        <mxCell id="mFo93Jf3UvVI9SlzPaP3-5" value="customer" style="whiteSpace=wrap;html=1;" vertex="1" parent="1">
          <mxGeometry x="145" y="300" width="120" height="30" as="geometry" />
        </mxCell>
        <mxCell id="mFo93Jf3UvVI9SlzPaP3-8" style="rounded=0;orthogonalLoop=1;jettySize=auto;html=1;exitX=1;exitY=0;exitDx=0;exitDy=0;endArrow=none;endFill=0;" edge="1" parent="1" source="mFo93Jf3UvVI9SlzPaP3-4" target="mFo93Jf3UvVI9SlzPaP3-18">
          <mxGeometry relative="1" as="geometry">
            <mxPoint x="95" y="260.0000000000002" as="targetPoint" />
          </mxGeometry>
        </mxCell>
        <mxCell id="mFo93Jf3UvVI9SlzPaP3-13" value="" style="rounded=0;orthogonalLoop=1;jettySize=auto;html=1;endArrow=none;endFill=0;" edge="1" parent="1" source="mFo93Jf3UvVI9SlzPaP3-14" target="mFo93Jf3UvVI9SlzPaP3-15">
          <mxGeometry relative="1" as="geometry" />
        </mxCell>
        <mxCell id="mFo93Jf3UvVI9SlzPaP3-14" value="ca" style="ellipse;whiteSpace=wrap;html=1;aspect=fixed;" vertex="1" parent="1">
          <mxGeometry x="320" y="300" width="30" height="30" as="geometry" />
        </mxCell>
        <mxCell id="mFo93Jf3UvVI9SlzPaP3-15" value="customer_account" style="whiteSpace=wrap;html=1;" vertex="1" parent="1">
          <mxGeometry x="365" y="300" width="120" height="30" as="geometry" />
        </mxCell>
        <mxCell id="mFo93Jf3UvVI9SlzPaP3-17" style="rounded=0;orthogonalLoop=1;jettySize=auto;html=1;exitX=0;exitY=0;exitDx=0;exitDy=0;endArrow=none;endFill=0;" edge="1" parent="1" source="mFo93Jf3UvVI9SlzPaP3-14" target="mFo93Jf3UvVI9SlzPaP3-18">
          <mxGeometry relative="1" as="geometry">
            <mxPoint x="220" y="232.01000000000022" as="targetPoint" />
          </mxGeometry>
        </mxCell>
        <mxCell id="mFo93Jf3UvVI9SlzPaP3-18" value="X" style="text;html=1;align=center;verticalAlign=middle;resizable=0;points=[];autosize=1;strokeColor=none;fillColor=none;fontFamily=Helvetica;fontSize=11;fontColor=default;labelBackgroundColor=default;" vertex="1" parent="1">
          <mxGeometry x="195" y="210" width="30" height="30" as="geometry" />
        </mxCell>
        <mxCell id="mFo93Jf3UvVI9SlzPaP3-19" value="" style="rounded=0;orthogonalLoop=1;jettySize=auto;html=1;endArrow=none;endFill=0;" edge="1" parent="1" source="mFo93Jf3UvVI9SlzPaP3-20" target="mFo93Jf3UvVI9SlzPaP3-21">
          <mxGeometry relative="1" as="geometry" />
        </mxCell>
        <mxCell id="mFo93Jf3UvVI9SlzPaP3-20" value="a" style="ellipse;whiteSpace=wrap;html=1;aspect=fixed;" vertex="1" parent="1">
          <mxGeometry x="385" y="225" width="30" height="30" as="geometry" />
        </mxCell>
        <mxCell id="mFo93Jf3UvVI9SlzPaP3-21" value="account" style="whiteSpace=wrap;html=1;" vertex="1" parent="1">
          <mxGeometry x="430" y="225" width="120" height="30" as="geometry" />
        </mxCell>
        <mxCell id="mFo93Jf3UvVI9SlzPaP3-22" style="rounded=0;orthogonalLoop=1;jettySize=auto;html=1;exitX=0;exitY=0;exitDx=0;exitDy=0;endArrow=none;endFill=0;entryX=1;entryY=0.917;entryDx=0;entryDy=0;entryPerimeter=0;" edge="1" parent="1" source="mFo93Jf3UvVI9SlzPaP3-20" target="mFo93Jf3UvVI9SlzPaP3-23">
          <mxGeometry relative="1" as="geometry">
            <mxPoint x="305" y="160" as="targetPoint" />
          </mxGeometry>
        </mxCell>
        <mxCell id="mFo93Jf3UvVI9SlzPaP3-23" value="X" style="text;html=1;align=center;verticalAlign=middle;resizable=0;points=[];autosize=1;strokeColor=none;fillColor=none;fontFamily=Helvetica;fontSize=11;fontColor=default;labelBackgroundColor=default;" vertex="1" parent="1">
          <mxGeometry x="270" y="150" width="30" height="30" as="geometry" />
        </mxCell>
        <mxCell id="mFo93Jf3UvVI9SlzPaP3-25" value="" style="endArrow=none;html=1;rounded=0;strokeColor=default;align=center;verticalAlign=middle;fontFamily=Helvetica;fontSize=11;fontColor=default;labelBackgroundColor=default;" edge="1" parent="1" source="mFo93Jf3UvVI9SlzPaP3-18" target="mFo93Jf3UvVI9SlzPaP3-23">
          <mxGeometry width="50" height="50" relative="1" as="geometry">
            <mxPoint x="330" y="160" as="sourcePoint" />
            <mxPoint x="380" y="110" as="targetPoint" />
          </mxGeometry>
        </mxCell>
        <mxCell id="mFo93Jf3UvVI9SlzPaP3-27" value="" style="rounded=0;orthogonalLoop=1;jettySize=auto;html=1;endArrow=none;endFill=0;" edge="1" parent="1" source="mFo93Jf3UvVI9SlzPaP3-28" target="mFo93Jf3UvVI9SlzPaP3-29">
          <mxGeometry relative="1" as="geometry" />
        </mxCell>
        <mxCell id="mFo93Jf3UvVI9SlzPaP3-28" value="b" style="ellipse;whiteSpace=wrap;html=1;aspect=fixed;" vertex="1" parent="1">
          <mxGeometry x="470" y="157" width="30" height="30" as="geometry" />
        </mxCell>
        <mxCell id="mFo93Jf3UvVI9SlzPaP3-29" value="bank_branch" style="whiteSpace=wrap;html=1;" vertex="1" parent="1">
          <mxGeometry x="520" y="157" width="120" height="30" as="geometry" />
        </mxCell>
        <mxCell id="mFo93Jf3UvVI9SlzPaP3-30" style="rounded=0;orthogonalLoop=1;jettySize=auto;html=1;exitX=0;exitY=0;exitDx=0;exitDy=0;endArrow=none;endFill=0;" edge="1" parent="1" source="mFo93Jf3UvVI9SlzPaP3-28" target="mFo93Jf3UvVI9SlzPaP3-31">
          <mxGeometry relative="1" as="geometry">
            <mxPoint x="380" y="100" as="targetPoint" />
          </mxGeometry>
        </mxCell>
        <mxCell id="mFo93Jf3UvVI9SlzPaP3-31" value="X" style="text;html=1;align=center;verticalAlign=middle;resizable=0;points=[];autosize=1;strokeColor=none;fillColor=none;fontFamily=Helvetica;fontSize=11;fontColor=default;labelBackgroundColor=default;" vertex="1" parent="1">
          <mxGeometry x="355" y="80" width="30" height="30" as="geometry" />
        </mxCell>
        <mxCell id="mFo93Jf3UvVI9SlzPaP3-32" style="rounded=0;orthogonalLoop=1;jettySize=auto;html=1;endArrow=none;endFill=0;" edge="1" parent="1" source="mFo93Jf3UvVI9SlzPaP3-23" target="mFo93Jf3UvVI9SlzPaP3-31">
          <mxGeometry relative="1" as="geometry">
            <mxPoint x="395" y="115" as="targetPoint" />
            <mxPoint x="484" y="171" as="sourcePoint" />
          </mxGeometry>
        </mxCell>
        <mxCell id="mFo93Jf3UvVI9SlzPaP3-33" value="&lt;strong style=&quot;font-family: &amp;quot;PT Sans&amp;quot;, sans-serif; font-size: 16px; text-wrap: wrap;&quot;&gt;σ&lt;/strong&gt;&amp;nbsp;c.ssn = ca.ssn AND ca.ano = a.anum AND a.bno = b.bnum AND&lt;div&gt;a.atype = &#39;student&#39; AND b.b_address = &#39;Armidale&#39;&lt;/div&gt;" style="text;html=1;align=center;verticalAlign=middle;resizable=0;points=[];autosize=1;strokeColor=none;fillColor=none;" vertex="1" parent="1">
          <mxGeometry x="180" y="-20" width="380" height="50" as="geometry" />
        </mxCell>
        <mxCell id="mFo93Jf3UvVI9SlzPaP3-34" value="" style="endArrow=none;html=1;rounded=0;entryX=0.5;entryY=1;entryDx=0;entryDy=0;entryPerimeter=0;" edge="1" parent="1" source="mFo93Jf3UvVI9SlzPaP3-31" target="mFo93Jf3UvVI9SlzPaP3-33">
          <mxGeometry width="50" height="50" relative="1" as="geometry">
            <mxPoint x="380" as="sourcePoint" />
            <mxPoint x="410" y="70" as="targetPoint" />
          </mxGeometry>
        </mxCell>
      </root>
    </mxGraphModel>
  </diagram>
</mxfile>
